<svg version="1" xmlns="http://www.w3.org/2000/svg" width="682.667" height="682.667" viewBox="0 0 512.000000 512.000000"><path d="M226 1.1c-17 1.8-49.9 9.6-60.5 14.4-1.6.8-7.7 3.5-13.5 6-20.6 9-44.5 23.8-60.5 37.5-9.5 8.2-27 25.8-34.8 35.2-14.8 17.7-35 53.4-42.6 75C4.2 197.7 0 223.3 0 256c0 32.7 4.2 58.3 14.1 86.8 7.6 21.6 27.8 57.3 42.6 75 7.8 9.4 25.3 27 34.8 35.2 16 13.7 39.9 28.5 60.5 37.5 5.8 2.5 11.9 5.2 13.5 6 11.2 5.1 43.6 12.6 62.4 14.5 13.3 1.3 42.9 1.3 56.2 0 18.8-1.9 51.2-9.4 62.4-14.5 1.7-.8 7.7-3.5 13.5-6 20.6-9 44.5-23.8 60.5-37.5 9.5-8.2 27-25.8 34.8-35.2 14.8-17.7 35-53.4 42.6-75 10-28.6 14.1-54.1 14.1-87.2 0-27.2-2.9-48.5-10.2-73.5-10.4-36.4-32.8-74.4-60.7-103.3-25.4-26.4-51.6-44.5-85.6-59.1C333.1 10 312 4.4 287.2 1.5 273.4-.1 240.3-.3 226 1.1zm60.5 5.5c23.1 3 45 8.6 62.5 16.1 5.8 2.5 12.1 5 14 5.7 5.1 1.8 23.1 12 33.9 19.4 28.7 19.4 54.7 46.4 72.5 75.2 5.7 9.1 14.9 26 14.2 26-.2 0 1.8 5.1 4.5 11.2 12.4 28.1 18.9 61.1 18.9 95.8 0 36.8-5.7 64.9-20.1 99-7.4 17.4-12.6 27-21.9 41-26.6 39.7-67.1 73.3-109 90.6-3.6 1.5-8.3 3.5-10.6 4.5-6.3 2.8-25.8 8.5-37.4 10.9-33.1 6.8-70.9 6.8-104 0-11.6-2.4-31.1-8.1-37.4-10.9-2.3-1-7-3-10.6-4.5-41.9-17.3-82.4-50.9-109-90.6-9.3-14-14.5-23.6-21.9-41C10.7 320.9 5 292.8 5 256s5.7-64.9 20.1-99c7.4-17.4 12.6-27 21.9-41 26.6-39.7 67.1-73.3 109-90.6 3.6-1.5 8.3-3.5 10.6-4.5C178 15.8 205.4 9 224.5 6.5c14.4-1.9 47.5-1.8 62 .1z"/><path d="M232.5 42.1c-51.1 5.3-104.7 33.1-137.6 71.5-26.8 31.2-43.8 66.5-51.1 106.4-1.8 9.7-2.1 15.3-2.1 36s.3 26.3 2.1 36c10.1 55.3 39.3 102.9 82.9 135.7 54.4 40.8 123.9 53.6 189.1 34.8 36.7-10.5 74.2-34 99.4-62.2 27.6-30.8 45.5-67.6 53-108.6 3.2-17.3 3.2-54.5 0-71.7-10.1-55.2-39.3-102.9-82.9-135.7-31.4-23.5-69.2-38.4-107.2-42.3-11.8-1.2-33.9-1.1-45.6.1zm48.8 161.7c40.6 20.2 74.9 37.7 76.2 39 6.3 5.8 7.6 14.6 3.4 22.2l-2.4 4.5-75.5 37.9c-69.7 34.9-75.9 37.8-80.6 37.8-8 0-15.4-5.1-17.4-12.3-1.5-5.1-1.3-149.6.1-154 1.3-3.6 5.2-8.4 8.4-10.2 2.7-1.5 8.5-2.5 11.5-2 1.4.2 35.7 16.9 76.3 37.1z"/><path d="M220 256c0 23.1.2 42 .3 42 1.5 0 83.7-41.3 83.7-42 0-.7-82.2-42-83.7-42-.1 0-.3 18.9-.3 42z"/></svg>